<?xml version="1.0" standalone="no"?>
<!DOCTYPE svg PUBLIC "-//W3C//DTD SVG 20010904//EN"
 "http://www.w3.org/TR/2001/REC-SVG-20010904/DTD/svg10.dtd">
<svg version="1.0" xmlns="http://www.w3.org/2000/svg"
 width="2816.000000pt" height="1536.000000pt" viewBox="0 0 2816.000000 1536.000000"
 preserveAspectRatio="xMidYMid meet">

<g transform="translate(0.000000,1536.000000) scale(0.100000,-0.100000)"
fill="#000000" stroke="none">
<path d="M11140 12724 c-340 -34 -581 -100 -845 -231 -236 -118 -399 -236
-585 -423 -362 -363 -580 -798 -657 -1315 -17 -113 -18 -283 -18 -3085 0
-3183 -2 -3029 51 -3270 112 -501 401 -963 802 -1282 368 -292 818 -465 1267
-487 168 -8 5807 -5 5918 4 491 36 990 268 1370 634 154 149 236 252 354 446
155 256 244 493 305 816 l23 124 3 2910 c2 2090 0 2951 -8 3055 -25 319 -102
589 -255 889 -107 210 -212 356 -380 530 -350 362 -772 581 -1285 668 -99 16
-280 18 -3065 19 -1628 0 -2976 -1 -2995 -2z m6003 -349 c266 -40 537 -144
762 -292 496 -328 808 -840 875 -1438 6 -58 10 -1113 10 -2995 0 -2515 -2
-2919 -15 -3010 -101 -709 -577 -1307 -1237 -1554 -122 -45 -306 -91 -429
-106 -69 -8 -885 -10 -3084 -8 l-2990 3 -123 28 c-252 56 -448 137 -645 266
-250 164 -417 330 -577 573 -145 219 -236 448 -292 733 l-22 110 -3 2900 c-3
1974 0 2938 7 3018 40 451 226 867 534 1194 304 323 706 525 1171 586 17 2
1363 5 2993 6 2613 1 2974 -1 3065 -14z"/>
<path d="M15559 11627 c-348 -133 -559 -435 -559 -801 0 -139 19 -240 114
-609 44 -171 61 -313 52 -431 -24 -314 -156 -595 -395 -836 -58 -59 -131 -128
-161 -153 l-55 -47 112 49 c219 97 374 200 523 351 264 266 383 557 367 894
-7 150 -37 279 -112 491 -113 318 -118 341 -119 510 -1 133 2 158 23 224 42
127 161 284 270 356 69 46 57 46 -60 2z"/>
<path d="M13805 10769 c-107 -9 -164 -24 -260 -69 -362 -168 -510 -591 -321
-914 42 -73 118 -141 201 -182 65 -32 89 -38 159 -42 90 -5 167 12 231 49 19
12 35 22 35 22 0 1 -46 2 -102 2 -92 0 -110 3 -165 29 -241 111 -293 432 -103
638 99 108 215 153 381 146 92 -3 102 -6 191 -50 104 -52 157 -100 213 -193
56 -94 79 -182 79 -300 -1 -343 -260 -637 -754 -855 -124 -55 -280 -110 -580
-205 -675 -213 -1012 -373 -1335 -632 -286 -229 -516 -523 -650 -832 -78 -179
-138 -391 -166 -581 -16 -109 -16 -420 0 -529 39 -267 119 -517 236 -736 52
-96 124 -215 125 -205 0 3 -16 50 -36 105 -43 122 -98 340 -119 478 -9 56 -18
176 -22 267 -15 429 69 790 266 1137 130 228 325 449 536 608 141 105 193 139
346 218 232 122 477 211 984 361 572 169 866 306 1123 525 184 158 287 297
365 496 55 140 70 235 65 405 -4 134 -7 153 -41 251 -46 136 -103 233 -196
331 -182 193 -417 280 -686 257z"/>
<path d="M16498 10440 c-90 -23 -159 -55 -243 -115 -78 -55 -132 -115 -201
-220 -74 -114 -113 -203 -195 -445 -152 -448 -325 -710 -610 -925 -322 -242
-646 -355 -1454 -506 -725 -135 -973 -207 -1337 -390 -339 -170 -607 -403
-800 -694 -184 -279 -300 -661 -297 -978 l1 -92 18 82 c53 232 177 526 302
714 243 365 567 614 1032 794 268 103 554 166 1170 255 617 90 941 177 1268
341 449 226 779 578 959 1027 18 42 60 163 94 267 77 233 93 273 140 353 93
159 213 234 375 234 145 0 267 -76 326 -204 26 -56 29 -74 29 -158 0 -82 -4
-103 -27 -152 -35 -76 -95 -138 -165 -174 -50 -25 -70 -29 -139 -29 -74 0 -88
3 -153 37 -39 20 -71 32 -71 28 0 -4 20 -29 45 -55 128 -131 364 -147 530 -35
98 67 179 186 212 313 20 80 13 238 -14 318 -62 182 -214 331 -410 401 -86 30
-281 35 -385 8z"/>
<path d="M16913 8598 c-33 -41 -219 -214 -289 -270 -92 -72 -197 -143 -318
-212 -486 -280 -995 -416 -1911 -511 -717 -74 -1069 -142 -1420 -272 -345
-128 -580 -278 -830 -528 -181 -180 -318 -382 -420 -618 -112 -261 -154 -436
-200 -841 l-6 -49 138 140 c76 78 181 173 233 211 l95 71 38 123 c76 245 238
522 407 694 361 368 832 549 1680 644 886 100 1072 127 1405 211 399 100 701
219 986 387 46 28 88 50 94 51 21 2 -7 -304 -50 -549 -50 -286 -130 -571 -222
-795 -103 -250 -214 -451 -382 -690 -117 -168 -188 -250 -348 -406 -441 -429
-974 -687 -1578 -765 -181 -24 -547 -24 -714 -1 -344 48 -638 133 -940 272
-144 66 -204 102 -196 116 28 44 232 210 376 305 333 219 631 340 1435 584
487 147 842 310 1097 501 162 121 356 314 412 408 4 7 -17 -7 -47 -31 -118
-97 -357 -228 -583 -321 -243 -100 -478 -167 -1000 -283 -309 -69 -361 -81
-580 -139 -778 -204 -1342 -564 -1727 -1100 -171 -239 -280 -455 -366 -725
-72 -228 -79 -344 -26 -418 79 -110 224 -131 323 -45 55 47 68 74 86 185 33
195 93 373 182 538 49 92 112 189 135 207 10 9 59 -11 221 -92 300 -149 588
-249 893 -308 245 -48 428 -67 660 -67 368 0 666 50 1044 176 537 178 1024
514 1399 962 453 543 736 1204 845 1977 36 249 46 401 46 664 -1 298 -27 631
-50 631 -5 0 -17 -10 -27 -22z"/>
</g>
</svg>
